# xmcd
#
# Track frame offsets:
#	150
#	12977
#	23594
#	37534
#	48833
#	64597
#	75328
#	86978
#	102241
#	113329
#	123423
#	133255
#	143372
#	155529
#	168783
#	180556
#	191459
#	203991
#	216385
#	229222
#	242179
#	254315
#	266004
#	279411
#
# Disc length: 3899 seconds
#
# Revision: 1
# Processed by: cddbd v1.5.2PL0 Copyright (c) Steve Scherf et al.
# Submitted via: EasyCDDAExtractor 2010.6.0.0
#
DISCID=3b0f3918
DTITLE=Various Artist - La Fiesta Del 40 Tangos Para Bailar-05
DYEAR=2011
DGENRE=Tango
TTITLE0=Ricardo Tanturi - Comparsa Cirolla
TTITLE1=Ricardo Tanturi - Aragañaraz
TTITLE2=Ricardo Tanturi - El Buey Solo
TTITLE3=Ricardo Tanturi - Una Noche De Garufa
TTITLE4=Juan D'arienzo Con Héctor Mauré - Amarras
TTITLE5=Juan D'arienzo Con Héctor Mauré - Cicatrices
TTITLE6=Juan D'arienzo Con Héctor Mauré - Si La Llegaran A Ver
TTITLE7=Juan D'arienzo Con Héctor Mauré - Lilian
TTITLE8=Rodolfo Biagi Con Teófilo Ibañez - Viejo Porton
TTITLE9=Rodolfo Biagi Con Teófilo Ibañez - Loca De Amor
TTITLE10=Rodolfo Biagi Con Teófilo Ibañez - Lejos De Ti
TTITLE11=Rodolfo Biagi Con Andrés Falgás - Dichas Que Vivi
TTITLE12=Adolfo Carabelli - La Guiñada
TTITLE13=Adolfo Carabelli Con Alberto Gomez - Alma
TTITLE14=Adolfo Carabelli Con Alberto Gomez - El 13
TTITLE15=Adolfo Carabelli - El Cabure
TTITLE16=Carlos Di Sarli - El Abrojo
TTITLE17=Carlos Di Sarli - Champagne Tango
TTITLE18=Carlos Di Sarli - Una Fija
TTITLE19=Carlos Di Sarli - Indio Manso
TTITLE20=Francisco Canaro Con Ernesto Famá - No Hay Tierra Como La Mia
TTITLE21=Francisco Canaro Con Roberto Maida - Milonga Brava
TTITLE22=Francisco Canaro Con Roberto Maida - Milonga Del Corazon
TTITLE23=Francisco Canaro Con Ernesto Famá - La Milonga De Buenos Aires
EXTD=
EXTT0=
EXTT1=
EXTT2=
EXTT3=
EXTT4=
EXTT5=
EXTT6=
EXTT7=
EXTT8=
EXTT9=
EXTT10=
EXTT11=
EXTT12=
EXTT13=
EXTT14=
EXTT15=
EXTT16=
EXTT17=
EXTT18=
EXTT19=
EXTT20=
EXTT21=
EXTT22=
EXTT23=
PLAYORDER=
